<svg width="212" height="34" viewBox="0 0 212 34" fill="none" xmlns="http://www.w3.org/2000/svg">
<path d="M9.55672 9.42862L8.54309 8.42749L17.0037 16.7854L25.4644 25.1434" stroke="#A80000" stroke-width="5"/>
<path d="M23.5279 10.1184L24.5299 9.10559L16.165 17.5594L8.37691 25.3474" stroke="#A80000" stroke-width="5"/>
<path d="M49.6949 11.53C50.7949 11.53 51.7599 11.745 52.5899 12.175C53.4299 12.605 54.0749 13.22 54.5249 14.02C54.9849 14.81 55.2149 15.73 55.2149 16.78C55.2149 17.83 54.9849 18.75 54.5249 19.54C54.0749 20.32 53.4299 20.925 52.5899 21.355C51.7599 21.785 50.7949 22 49.6949 22H46.0349V11.53H49.6949ZM49.6199 20.215C50.7199 20.215 51.5699 19.915 52.1699 19.315C52.7699 18.715 53.0699 17.87 53.0699 16.78C53.0699 15.69 52.7699 14.84 52.1699 14.23C51.5699 13.61 50.7199 13.3 49.6199 13.3H48.1349V20.215H49.6199ZM64.4218 17.665C64.4218 17.965 64.4018 18.235 64.3618 18.475H58.2868C58.3368 19.075 58.5468 19.545 58.9168 19.885C59.2868 20.225 59.7418 20.395 60.2818 20.395C61.0618 20.395 61.6168 20.06 61.9468 19.39H64.2118C63.9718 20.19 63.5118 20.85 62.8318 21.37C62.1518 21.88 61.3168 22.135 60.3268 22.135C59.5268 22.135 58.8068 21.96 58.1668 21.61C57.5368 21.25 57.0418 20.745 56.6818 20.095C56.3318 19.445 56.1568 18.695 56.1568 17.845C56.1568 16.985 56.3318 16.23 56.6818 15.58C57.0318 14.93 57.5218 14.43 58.1518 14.08C58.7818 13.73 59.5068 13.555 60.3268 13.555C61.1168 13.555 61.8218 13.725 62.4418 14.065C63.0718 14.405 63.5568 14.89 63.8968 15.52C64.2468 16.14 64.4218 16.855 64.4218 17.665ZM62.2468 17.065C62.2368 16.525 62.0418 16.095 61.6618 15.775C61.2818 15.445 60.8168 15.28 60.2668 15.28C59.7468 15.28 59.3068 15.44 58.9468 15.76C58.5968 16.07 58.3818 16.505 58.3018 17.065H62.2468ZM67.9646 10.9V22H65.8646V10.9H67.9646ZM77.6744 17.665C77.6744 17.965 77.6544 18.235 77.6144 18.475H71.5394C71.5894 19.075 71.7994 19.545 72.1694 19.885C72.5394 20.225 72.9944 20.395 73.5344 20.395C74.3144 20.395 74.8694 20.06 75.1994 19.39H77.4644C77.2244 20.19 76.7644 20.85 76.0844 21.37C75.4044 21.88 74.5694 22.135 73.5794 22.135C72.7794 22.135 72.0594 21.96 71.4194 21.61C70.7894 21.25 70.2944 20.745 69.9344 20.095C69.5844 19.445 69.4094 18.695 69.4094 17.845C69.4094 16.985 69.5844 16.23 69.9344 15.58C70.2844 14.93 70.7744 14.43 71.4044 14.08C72.0344 13.73 72.7594 13.555 73.5794 13.555C74.3694 13.555 75.0744 13.725 75.6944 14.065C76.3244 14.405 76.8094 14.89 77.1494 15.52C77.4994 16.14 77.6744 16.855 77.6744 17.665ZM75.4994 17.065C75.4894 16.525 75.2944 16.095 74.9144 15.775C74.5344 15.445 74.0694 15.28 73.5194 15.28C72.9994 15.28 72.5594 15.44 72.1994 15.76C71.8494 16.07 71.6344 16.505 71.5544 17.065H75.4994ZM81.5623 15.415V19.435C81.5623 19.715 81.6273 19.92 81.7573 20.05C81.8973 20.17 82.1273 20.23 82.4473 20.23H83.4223V22H82.1023C80.3323 22 79.4473 21.14 79.4473 19.42V15.415H78.4573V13.69H79.4473V11.635H81.5623V13.69H83.4223V15.415H81.5623ZM92.5677 17.665C92.5677 17.965 92.5477 18.235 92.5077 18.475H86.4327C86.4827 19.075 86.6927 19.545 87.0627 19.885C87.4327 20.225 87.8877 20.395 88.4277 20.395C89.2077 20.395 89.7627 20.06 90.0927 19.39H92.3577C92.1177 20.19 91.6577 20.85 90.9777 21.37C90.2977 21.88 89.4627 22.135 88.4727 22.135C87.6727 22.135 86.9527 21.96 86.3127 21.61C85.6827 21.25 85.1877 20.745 84.8277 20.095C84.4777 19.445 84.3027 18.695 84.3027 17.845C84.3027 16.985 84.4777 16.23 84.8277 15.58C85.1777 14.93 85.6677 14.43 86.2977 14.08C86.9277 13.73 87.6527 13.555 88.4727 13.555C89.2627 13.555 89.9677 13.725 90.5877 14.065C91.2177 14.405 91.7027 14.89 92.0427 15.52C92.3927 16.14 92.5677 16.855 92.5677 17.665ZM90.3927 17.065C90.3827 16.525 90.1877 16.095 89.8077 15.775C89.4277 15.445 88.9627 15.28 88.4127 15.28C87.8927 15.28 87.4527 15.44 87.0927 15.76C86.7427 16.07 86.5277 16.505 86.4477 17.065H90.3927ZM105.55 22L104.41 20.875C103.44 21.745 102.255 22.18 100.855 22.18C100.085 22.18 99.4047 22.05 98.8147 21.79C98.2347 21.52 97.7847 21.145 97.4647 20.665C97.1447 20.175 96.9847 19.61 96.9847 18.97C96.9847 18.28 97.1797 17.66 97.5697 17.11C97.9597 16.56 98.5347 16.115 99.2947 15.775C99.0247 15.445 98.8297 15.13 98.7097 14.83C98.5897 14.52 98.5297 14.19 98.5297 13.84C98.5297 13.36 98.6547 12.93 98.9047 12.55C99.1547 12.16 99.5097 11.855 99.9697 11.635C100.44 11.415 100.985 11.305 101.605 11.305C102.235 11.305 102.775 11.425 103.225 11.665C103.675 11.905 104.01 12.225 104.23 12.625C104.45 13.025 104.545 13.47 104.515 13.96H102.475C102.485 13.63 102.405 13.38 102.235 13.21C102.065 13.03 101.835 12.94 101.545 12.94C101.265 12.94 101.03 13.025 100.84 13.195C100.66 13.355 100.57 13.565 100.57 13.825C100.57 14.075 100.645 14.325 100.795 14.575C100.945 14.815 101.19 15.115 101.53 15.475L104.17 18.085C104.19 18.065 104.205 18.045 104.215 18.025C104.225 18.005 104.235 17.985 104.245 17.965L105.1 16.54H107.29L106.24 18.385C106.04 18.775 105.825 19.145 105.595 19.495L108.13 22H105.55ZM100.915 20.44C101.735 20.44 102.46 20.15 103.09 19.57L100.51 17.02C99.5397 17.45 99.0547 18.06 99.0547 18.85C99.0547 19.3 99.2247 19.68 99.5647 19.99C99.9047 20.29 100.355 20.44 100.915 20.44ZM114.664 14.98C114.934 14.54 115.284 14.195 115.714 13.945C116.154 13.695 116.654 13.57 117.214 13.57V15.775H116.659C115.999 15.775 115.499 15.93 115.159 16.24C114.829 16.55 114.664 17.09 114.664 17.86V22H112.564V13.69H114.664V14.98ZM126.263 17.665C126.263 17.965 126.243 18.235 126.203 18.475H120.128C120.178 19.075 120.388 19.545 120.758 19.885C121.128 20.225 121.583 20.395 122.123 20.395C122.903 20.395 123.458 20.06 123.788 19.39H126.053C125.813 20.19 125.353 20.85 124.673 21.37C123.993 21.88 123.158 22.135 122.168 22.135C121.368 22.135 120.648 21.96 120.008 21.61C119.378 21.25 118.883 20.745 118.523 20.095C118.173 19.445 117.998 18.695 117.998 17.845C117.998 16.985 118.173 16.23 118.523 15.58C118.873 14.93 119.363 14.43 119.993 14.08C120.623 13.73 121.348 13.555 122.168 13.555C122.958 13.555 123.663 13.725 124.283 14.065C124.913 14.405 125.398 14.89 125.738 15.52C126.088 16.14 126.263 16.855 126.263 17.665ZM124.088 17.065C124.078 16.525 123.883 16.095 123.503 15.775C123.123 15.445 122.658 15.28 122.108 15.28C121.588 15.28 121.148 15.44 120.788 15.76C120.438 16.07 120.223 16.505 120.143 17.065H124.088ZM134.096 15.76V17.53H127.736V15.76H134.096ZM144.206 13.69V22H142.091V20.95C141.821 21.31 141.466 21.595 141.026 21.805C140.596 22.005 140.126 22.105 139.616 22.105C138.966 22.105 138.391 21.97 137.891 21.7C137.391 21.42 136.996 21.015 136.706 20.485C136.426 19.945 136.286 19.305 136.286 18.565V13.69H138.386V18.265C138.386 18.925 138.551 19.435 138.881 19.795C139.211 20.145 139.661 20.32 140.231 20.32C140.811 20.32 141.266 20.145 141.596 19.795C141.926 19.435 142.091 18.925 142.091 18.265V13.69H144.206ZM148.288 14.89C148.558 14.51 148.928 14.195 149.398 13.945C149.878 13.685 150.423 13.555 151.033 13.555C151.743 13.555 152.383 13.73 152.953 14.08C153.533 14.43 153.988 14.93 154.318 15.58C154.658 16.22 154.828 16.965 154.828 17.815C154.828 18.665 154.658 19.42 154.318 20.08C153.988 20.73 153.533 21.235 152.953 21.595C152.383 21.955 151.743 22.135 151.033 22.135C150.423 22.135 149.883 22.01 149.413 21.76C148.953 21.51 148.578 21.195 148.288 20.815V25.96H146.188V13.69H148.288V14.89ZM152.683 17.815C152.683 17.315 152.578 16.885 152.368 16.525C152.168 16.155 151.898 15.875 151.558 15.685C151.228 15.495 150.868 15.4 150.478 15.4C150.098 15.4 149.738 15.5 149.398 15.7C149.068 15.89 148.798 16.17 148.588 16.54C148.388 16.91 148.288 17.345 148.288 17.845C148.288 18.345 148.388 18.78 148.588 19.15C148.798 19.52 149.068 19.805 149.398 20.005C149.738 20.195 150.098 20.29 150.478 20.29C150.868 20.29 151.228 20.19 151.558 19.99C151.898 19.79 152.168 19.505 152.368 19.135C152.578 18.765 152.683 18.325 152.683 17.815ZM158.364 10.9V22H156.264V10.9H158.364ZM164.039 22.135C163.239 22.135 162.519 21.96 161.879 21.61C161.239 21.25 160.734 20.745 160.364 20.095C160.004 19.445 159.824 18.695 159.824 17.845C159.824 16.995 160.009 16.245 160.379 15.595C160.759 14.945 161.274 14.445 161.924 14.095C162.574 13.735 163.299 13.555 164.099 13.555C164.899 13.555 165.624 13.735 166.274 14.095C166.924 14.445 167.434 14.945 167.804 15.595C168.184 16.245 168.374 16.995 168.374 17.845C168.374 18.695 168.179 19.445 167.789 20.095C167.409 20.745 166.889 21.25 166.229 21.61C165.579 21.96 164.849 22.135 164.039 22.135ZM164.039 20.305C164.419 20.305 164.774 20.215 165.104 20.035C165.444 19.845 165.714 19.565 165.914 19.195C166.114 18.825 166.214 18.375 166.214 17.845C166.214 17.055 166.004 16.45 165.584 16.03C165.174 15.6 164.669 15.385 164.069 15.385C163.469 15.385 162.964 15.6 162.554 16.03C162.154 16.45 161.954 17.055 161.954 17.845C161.954 18.635 162.149 19.245 162.539 19.675C162.939 20.095 163.439 20.305 164.039 20.305ZM169.284 17.815C169.284 16.975 169.449 16.23 169.779 15.58C170.119 14.93 170.574 14.43 171.144 14.08C171.724 13.73 172.369 13.555 173.079 13.555C173.699 13.555 174.239 13.68 174.699 13.93C175.169 14.18 175.544 14.495 175.824 14.875V13.69H177.939V22H175.824V20.785C175.554 21.175 175.179 21.5 174.699 21.76C174.229 22.01 173.684 22.135 173.064 22.135C172.364 22.135 171.724 21.955 171.144 21.595C170.574 21.235 170.119 20.73 169.779 20.08C169.449 19.42 169.284 18.665 169.284 17.815ZM175.824 17.845C175.824 17.335 175.724 16.9 175.524 16.54C175.324 16.17 175.054 15.89 174.714 15.7C174.374 15.5 174.009 15.4 173.619 15.4C173.229 15.4 172.869 15.495 172.539 15.685C172.209 15.875 171.939 16.155 171.729 16.525C171.529 16.885 171.429 17.315 171.429 17.815C171.429 18.315 171.529 18.755 171.729 19.135C171.939 19.505 172.209 19.79 172.539 19.99C172.879 20.19 173.239 20.29 173.619 20.29C174.009 20.29 174.374 20.195 174.714 20.005C175.054 19.805 175.324 19.525 175.524 19.165C175.724 18.795 175.824 18.355 175.824 17.845ZM179.36 17.815C179.36 16.975 179.525 16.23 179.855 15.58C180.195 14.93 180.655 14.43 181.235 14.08C181.815 13.73 182.46 13.555 183.17 13.555C183.71 13.555 184.225 13.675 184.715 13.915C185.205 14.145 185.595 14.455 185.885 14.845V10.9H188.015V22H185.885V20.77C185.625 21.18 185.26 21.51 184.79 21.76C184.32 22.01 183.775 22.135 183.155 22.135C182.455 22.135 181.815 21.955 181.235 21.595C180.655 21.235 180.195 20.73 179.855 20.08C179.525 19.42 179.36 18.665 179.36 17.815ZM185.9 17.845C185.9 17.335 185.8 16.9 185.6 16.54C185.4 16.17 185.13 15.89 184.79 15.7C184.45 15.5 184.085 15.4 183.695 15.4C183.305 15.4 182.945 15.495 182.615 15.685C182.285 15.875 182.015 16.155 181.805 16.525C181.605 16.885 181.505 17.315 181.505 17.815C181.505 18.315 181.605 18.755 181.805 19.135C182.015 19.505 182.285 19.79 182.615 19.99C182.955 20.19 183.315 20.29 183.695 20.29C184.085 20.29 184.45 20.195 184.79 20.005C185.13 19.805 185.4 19.525 185.6 19.165C185.8 18.795 185.9 18.355 185.9 17.845Z" fill="#A80000"/>
</svg>
